# xmcd
#
# Track frame offsets: 
#        150
#        12259
#        28060
#        40317
#        54985
#        70643
#        88002
#        102835
#        115620
#        132545
#        147752
#        163610
#        182063
#        201713
#
# Disc length: 2952 seconds
#
# Revision: 4
# Processed by: cddbd v1.5.2PL0 Copyright (c) Steve Scherf et al.
# Submitted via: ExactAudioCopy v1.0b3
#
DISCID=c10b860e
DTITLE=The Blues Band - Itchy Feet
DYEAR=1981
DGENRE=Blues
TTITLE0=Talkin' Woman Blues
TTITLE1=Who's Right, Who's Wrong
TTITLE2=Rock'n'Roll Radio
TTITLE3=Itchy Feet
TTITLE4=Ultimatum Time
TTITLE5=So Lonely
TTITLE6=Maggies Farm
TTITLE7=Come On
TTITLE8=Turn Around
TTITLE9=I Can't Be Satisfied
TTITLE10=Got To Love You Baby
TTITLE11=Nothin' But The Blues
TTITLE12=Let Your Bucket Down
TTITLE13=Back Door Man
EXTD=AAD-BGD Records-1981 YEAR: 1981 ID3G: 0
EXTT0=
EXTT1=
EXTT2=
EXTT3=
EXTT4=
EXTT5=
EXTT6=
EXTT7=
EXTT8=
EXTT9=
EXTT10=
EXTT11=
EXTT12=
EXTT13=
PLAYORDER=
